<svg version="1.1" id="Layer_1" xmlns="http://www.w3.org/2000/svg" xmlns:xlink="http://www.w3.org/1999/xlink" x="0px" y="0px"
	 width="100%" viewBox="0 0 512 512" enable-background="new 0 0 512 512" xml:space="preserve">
<path fill="#ffffff" opacity="1.000000" stroke="none"
	d="
M336.000000,513.000000 
	C224.027206,513.000000 112.554405,513.000000 1.040803,513.000000 
	C1.040803,342.402191 1.040803,171.804352 1.040803,1.103257 
	C171.556137,1.103257 342.112366,1.103257 512.834290,1.103257 
	C512.834290,171.666534 512.834290,342.333252 512.834290,513.000000 
	C454.137665,513.000000 395.318817,513.000000 336.000000,513.000000 
M189.471100,263.955078 
	C190.283203,266.753204 191.163208,269.533661 191.895538,272.352509 
	C194.935730,284.054474 197.255142,295.997223 201.125214,307.415649 
	C205.363083,319.919159 210.542435,332.169098 216.227417,344.092865 
	C219.835892,351.661346 225.637650,358.147461 233.102875,362.269836 
	C236.968063,364.404236 241.747833,365.258179 246.217941,365.750458 
	C248.219467,365.970856 251.752701,365.258575 251.078079,361.240356 
	C249.692993,352.990601 248.218430,344.751801 247.055984,336.469849 
	C245.843750,327.833313 244.981186,319.148193 243.913208,310.490784 
	C243.470459,306.901764 242.945328,303.320801 242.363495,299.751495 
	C240.939301,291.014771 239.336899,282.305328 238.037994,273.550476 
	C236.737106,264.782135 235.711182,255.972839 234.577560,247.179855 
	C234.177628,244.077728 233.905411,240.956558 233.419281,237.868591 
	C231.989166,228.784241 230.389755,219.725800 229.030106,210.631302 
	C227.765701,202.173874 226.694473,193.686966 225.592606,185.205978 
	C224.362457,175.737564 223.227158,166.256836 221.987946,156.789642 
	C220.919098,148.624130 219.940811,140.440643 218.599380,132.318466 
	C216.913040,122.107964 215.003174,111.930992 213.000107,101.776955 
	C209.821106,85.661835 207.173035,69.396606 202.998810,53.537457 
	C199.628433,40.732418 194.483215,28.378565 189.844452,15.929226 
	C186.972626,8.221939 181.060379,3.742117 174.758896,4.029417 
	C167.585556,4.356467 165.000778,10.474769 162.180954,15.347077 
	C153.203064,30.859690 149.935776,48.475521 145.225677,65.484840 
	C142.120575,76.698227 139.969925,88.249657 138.441177,99.788742 
	C137.847855,104.267036 135.410324,108.872643 139.240585,114.131088 
	C146.560028,124.179749 153.119247,134.904572 158.867630,145.935715 
	C163.317734,154.475449 166.495880,163.767548 169.439438,172.980804 
	C173.367096,185.274307 176.855637,197.734116 179.891769,210.277634 
	C182.051270,219.199509 183.158478,228.376465 184.724930,237.441376 
	C186.205460,246.009018 187.672455,254.579025 189.471100,263.955078 
M334.015656,336.892578 
	C334.677094,332.025604 335.648743,327.176727 335.934143,322.287811 
	C336.493866,312.699432 336.663177,303.088470 337.022156,293.487885 
	C337.052582,292.674377 337.316193,291.871948 337.434204,291.058960 
	C338.960297,280.545441 340.450775,270.026672 342.009277,259.517975 
	C343.400940,250.134186 344.682495,240.728363 346.358246,231.394302 
	C347.621399,224.358307 349.444397,217.423386 350.993408,210.437973 
	C352.892975,201.871872 354.876312,193.322067 356.603577,184.721069 
	C357.419342,180.658981 357.722992,176.494049 358.493500,170.570587 
	C350.649933,172.447144 343.826050,172.850067 338.202759,175.657684 
	C321.899078,183.797882 313.141022,198.594574 307.133362,215.007812 
	C304.126953,223.221420 302.403687,231.915848 300.277344,240.437042 
	C298.385559,248.018234 296.763702,255.666428 294.976562,263.274200 
	C292.632568,273.252441 290.559052,283.308624 287.791534,293.169159 
	C284.517151,304.835846 280.989746,316.459595 276.905121,327.863129 
	C272.548553,340.025879 267.584167,351.982300 262.530121,363.877991 
	C260.622498,368.367950 257.944031,372.344177 259.244629,377.684265 
	C261.087738,385.252045 262.621277,392.908356 263.947052,400.585541 
	C265.530701,409.756073 266.362122,419.069702 268.238922,428.172974 
	C270.401276,438.661407 273.166046,449.038239 276.006042,459.370972 
	C279.131744,470.743439 282.218079,482.160797 286.163940,493.259094 
	C288.081635,498.652985 291.555206,503.634583 295.013458,508.291107 
	C297.383423,511.482300 303.551147,510.641754 305.852814,507.525909 
	C312.893768,497.994385 315.402710,486.703705 317.918732,475.507599 
	C319.779053,467.229340 320.860382,458.776093 322.291992,450.401367 
	C323.858673,441.236328 325.764038,432.113586 326.911682,422.896484 
	C328.291260,411.816925 329.117218,400.664551 330.021362,389.530579 
	C331.420471,372.301300 332.682648,355.060852 334.015656,336.892578 
M410.061218,122.555237 
	C403.315063,115.098083 390.664978,114.459755 384.698517,122.910751 
	C380.492554,128.868164 376.643066,135.112656 373.093750,141.484818 
	C371.002594,145.239182 369.627258,149.432938 368.262573,153.539627 
	C366.952240,157.482697 365.682007,161.512741 365.097046,165.605057 
	C364.321503,171.030746 370.003632,172.031219 372.695465,174.948135 
	C383.669922,186.840240 392.535095,200.153488 400.549896,214.097061 
	C407.943665,226.960144 413.668243,240.872589 424.289307,251.691818 
	C435.706787,263.322357 448.599335,270.837341 466.710175,266.451050 
	C465.763306,262.668091 464.919861,259.138916 463.994232,255.631424 
	C461.604553,246.575729 459.385559,237.467987 456.714874,228.495178 
	C453.339935,217.156219 449.543427,205.943390 446.006195,194.651901 
	C442.551758,183.624664 440.058105,172.202087 435.583160,161.612091 
	C429.581970,147.410187 422.582336,133.515854 410.061218,122.555237 
M123.385712,115.000069 
	C116.627449,114.604828 111.548729,118.096596 107.078636,122.481216 
	C95.719223,133.623413 89.454765,147.896622 84.176262,162.437775 
	C78.985954,176.735962 75.121674,191.483414 68.429947,205.272949 
	C63.400723,215.636566 58.573009,226.019470 50.853313,234.759689 
	C49.472157,236.323441 48.620678,238.355042 47.161549,240.772034 
	C70.163078,240.772034 91.911301,240.772034 113.733765,240.772034 
	C114.509857,235.447998 115.315735,230.342087 115.987175,225.218567 
	C117.108772,216.660065 118.149399,208.090897 119.213638,199.524918 
	C119.596352,196.444458 119.878265,193.349869 120.327873,190.279556 
	C121.856186,179.842987 123.481483,169.420517 124.987511,158.980804 
	C126.241302,150.289627 127.422363,141.587296 128.546555,132.878418 
	C128.966309,129.626755 128.710220,126.235512 129.503555,123.095177 
	C131.219742,116.301796 131.415573,116.351265 123.385712,115.000069 
M127.608170,241.000000 
	C144.337860,241.000000 161.067535,241.000000 178.453613,241.000000 
	C177.491028,233.971848 177.150925,227.690491 175.701508,221.676498 
	C172.427307,208.091034 168.639938,194.628265 164.997192,181.132874 
	C160.163330,163.224564 154.143066,145.769089 143.919006,130.120193 
	C141.845779,126.946922 140.352524,122.609344 134.946793,121.848656 
	C130.142288,161.666016 125.384010,201.100143 120.569542,241.000000 
	C123.356171,241.000000 124.999496,241.000000 127.608170,241.000000 
M289.144745,261.901428 
	C290.425720,255.301605 291.919769,248.733398 292.905945,242.089813 
	C293.477173,238.241760 290.321136,238.026062 287.569489,238.020309 
	C273.077820,237.990036 258.586029,238.000076 244.094421,238.040695 
	C243.160019,238.043304 242.226654,238.420074 240.529602,238.788483 
	C241.375137,244.161041 242.312210,249.305649 242.972580,254.485535 
	C244.221985,264.285919 245.350037,274.102325 246.448715,283.921021 
	C246.834732,287.370941 246.770462,290.879669 247.286652,294.305023 
	C248.752914,304.034882 250.528687,313.718445 251.962555,323.452698 
	C253.326752,332.713959 254.422714,342.014893 255.615753,351.301086 
	C255.938156,353.810608 256.184753,356.329834 256.466156,358.844574 
	C256.876923,358.991425 257.287689,359.138275 257.698456,359.285126 
	C258.725555,357.948700 260.170929,356.762421 260.713257,355.251923 
	C264.901825,343.585571 269.050812,331.901123 272.936951,320.131409 
	C275.596893,312.075470 277.929688,303.905518 280.203003,295.729340 
	C283.252350,284.762177 286.103027,273.739807 289.144745,261.901428 
M351.015442,238.217300 
	C352.124542,239.142349 353.113464,240.333664 354.381744,240.905945 
	C355.351105,241.343353 356.673889,240.999619 357.839478,240.999649 
	C374.134949,241.000137 390.430450,241.000000 407.970795,241.000000 
	C406.349274,237.635300 405.150726,235.087677 403.901215,232.565262 
	C395.903656,216.420029 386.888245,200.894577 375.360138,186.978027 
	C372.684662,183.748230 369.459106,180.934296 366.234100,178.230194 
	C365.514465,177.626785 362.698853,178.018051 362.593536,178.414719 
	C361.212372,183.617142 360.050690,188.884491 359.020844,194.171967 
	C357.496979,201.996048 356.132843,209.851120 354.681519,217.689453 
	C353.469513,224.235123 352.229919,230.775681 351.015442,238.217300 
z"/>
<path fill="#88363B" opacity="1.000000" stroke="none" 
	d="
M189.308258,263.551514 
	C187.672455,254.579025 186.205460,246.009018 184.724930,237.441376 
	C183.158478,228.376465 182.051270,219.199509 179.891769,210.277634 
	C176.855637,197.734116 173.367096,185.274307 169.439438,172.980804 
	C166.495880,163.767548 163.317734,154.475449 158.867630,145.935715 
	C153.119247,134.904572 146.560028,124.179749 139.240585,114.131088 
	C135.410324,108.872643 137.847855,104.267036 138.441177,99.788742 
	C139.969925,88.249657 142.120575,76.698227 145.225677,65.484840 
	C149.935776,48.475521 153.203064,30.859690 162.180954,15.347077 
	C165.000778,10.474769 167.585556,4.356467 174.758896,4.029417 
	C181.060379,3.742117 186.972626,8.221939 189.844452,15.929226 
	C194.483215,28.378565 199.628433,40.732418 202.998810,53.537457 
	C207.173035,69.396606 209.821106,85.661835 213.000107,101.776955 
	C215.003174,111.930992 216.913040,122.107964 218.599380,132.318466 
	C219.940811,140.440643 220.919098,148.624130 221.987946,156.789642 
	C223.227158,166.256836 224.362457,175.737564 225.592606,185.205978 
	C226.694473,193.686966 227.765701,202.173874 229.030106,210.631302 
	C230.389755,219.725800 231.989166,228.784241 233.419281,237.868591 
	C233.905411,240.956558 234.177628,244.077728 234.577560,247.179855 
	C235.711182,255.972839 236.737106,264.782135 238.037994,273.550476 
	C239.336899,282.305328 240.939301,291.014771 242.363495,299.751495 
	C242.945328,303.320801 243.470459,306.901764 243.913208,310.490784 
	C244.981186,319.148193 245.843750,327.833313 247.055984,336.469849 
	C248.218430,344.751801 249.692993,352.990601 251.078079,361.240356 
	C251.752701,365.258575 248.219467,365.970856 246.217941,365.750458 
	C241.747833,365.258179 236.968063,364.404236 233.102875,362.269836 
	C225.637650,358.147461 219.835892,351.661346 216.227417,344.092865 
	C210.542435,332.169098 205.363083,319.919159 201.125214,307.415649 
	C197.255142,295.997223 194.935730,284.054474 191.895538,272.352509 
	C191.163208,269.533661 190.283203,266.753204 189.308258,263.551514 
z"/>
<path fill="#3A97A0" opacity="1.000000" stroke="none" 
	d="
M334.009277,337.358887 
	C332.682648,355.060852 331.420471,372.301300 330.021362,389.530579 
	C329.117218,400.664551 328.291260,411.816925 326.911682,422.896484 
	C325.764038,432.113586 323.858673,441.236328 322.291992,450.401367 
	C320.860382,458.776093 319.779053,467.229340 317.918732,475.507599 
	C315.402710,486.703705 312.893768,497.994385 305.852814,507.525909 
	C303.551147,510.641754 297.383423,511.482300 295.013458,508.291107 
	C291.555206,503.634583 288.081635,498.652985 286.163940,493.259094 
	C282.218079,482.160797 279.131744,470.743439 276.006042,459.370972 
	C273.166046,449.038239 270.401276,438.661407 268.238922,428.172974 
	C266.362122,419.069702 265.530701,409.756073 263.947052,400.585541 
	C262.621277,392.908356 261.087738,385.252045 259.244629,377.684265 
	C257.944031,372.344177 260.622498,368.367950 262.530121,363.877991 
	C267.584167,351.982300 272.548553,340.025879 276.905121,327.863129 
	C280.989746,316.459595 284.517151,304.835846 287.791534,293.169159 
	C290.559052,283.308624 292.632568,273.252441 294.976562,263.274200 
	C296.763702,255.666428 298.385559,248.018234 300.277344,240.437042 
	C302.403687,231.915848 304.126953,223.221420 307.133362,215.007812 
	C313.141022,198.594574 321.899078,183.797882 338.202759,175.657684 
	C343.826050,172.850067 350.649933,172.447144 358.493500,170.570587 
	C357.722992,176.494049 357.419342,180.658981 356.603577,184.721069 
	C354.876312,193.322067 352.892975,201.871872 350.993408,210.437973 
	C349.444397,217.423386 347.621399,224.358307 346.358246,231.394302 
	C344.682495,240.728363 343.400940,250.134186 342.009277,259.517975 
	C340.450775,270.026672 338.960297,280.545441 337.434204,291.058960 
	C337.316193,291.871948 337.052582,292.674377 337.022156,293.487885 
	C336.663177,303.088470 336.493866,312.699432 335.934143,322.287811 
	C335.648743,327.176727 334.677094,332.025604 334.009277,337.358887 
z"/>
<path fill="#F9AA31" opacity="1.000000" stroke="none" 
	d="
M410.377502,122.752579 
	C422.582336,133.515854 429.581970,147.410187 435.583160,161.612091 
	C440.058105,172.202087 442.551758,183.624664 446.006195,194.651901 
	C449.543427,205.943390 453.339935,217.156219 456.714874,228.495178 
	C459.385559,237.467987 461.604553,246.575729 463.994232,255.631424 
	C464.919861,259.138916 465.763306,262.668091 466.710175,266.451050 
	C448.599335,270.837341 435.706787,263.322357 424.289307,251.691818 
	C413.668243,240.872589 407.943665,226.960144 400.549896,214.097061 
	C392.535095,200.153488 383.669922,186.840240 372.695465,174.948135 
	C370.003632,172.031219 364.321503,171.030746 365.097046,165.605057 
	C365.682007,161.512741 366.952240,157.482697 368.262573,153.539627 
	C369.627258,149.432938 371.002594,145.239182 373.093750,141.484818 
	C376.643066,135.112656 380.492554,128.868164 384.698517,122.910751 
	C390.664978,114.459755 403.315063,115.098083 410.377502,122.752579 
z"/>
<path fill="#DFC193" opacity="1.000000" stroke="none" 
	d="
M123.822693,115.000290 
	C131.415573,116.351265 131.219742,116.301796 129.503555,123.095177 
	C128.710220,126.235512 128.966309,129.626755 128.546555,132.878418 
	C127.422363,141.587296 126.241302,150.289627 124.987511,158.980804 
	C123.481483,169.420517 121.856186,179.842987 120.327873,190.279556 
	C119.878265,193.349869 119.596352,196.444458 119.213638,199.524918 
	C118.149399,208.090897 117.108772,216.660065 115.987175,225.218567 
	C115.315735,230.342087 114.509857,235.447998 113.733765,240.772034 
	C91.911301,240.772034 70.163078,240.772034 47.161549,240.772034 
	C48.620678,238.355042 49.472157,236.323441 50.853313,234.759689 
	C58.573009,226.019470 63.400723,215.636566 68.429947,205.272949 
	C75.121674,191.483414 78.985954,176.735962 84.176262,162.437775 
	C89.454765,147.896622 95.719223,133.623413 107.078636,122.481216 
	C111.548729,118.096596 116.627449,114.604828 123.822693,115.000290 
z"/>
<path fill="#AE644D" opacity="1.000000" stroke="none" 
	d="
M127.125496,241.000000 
	C124.999496,241.000000 123.356171,241.000000 120.569542,241.000000 
	C125.384010,201.100143 130.142288,161.666016 134.946793,121.848656 
	C140.352524,122.609344 141.845779,126.946922 143.919006,130.120193 
	C154.143066,145.769089 160.163330,163.224564 164.997192,181.132874 
	C168.639938,194.628265 172.427307,208.091034 175.701508,221.676498 
	C177.150925,227.690491 177.491028,233.971848 178.453613,241.000000 
	C161.067535,241.000000 144.337860,241.000000 127.125496,241.000000 
z"/>
<path fill="#704E36" opacity="1.000000" stroke="none" 
	d="
M289.091888,262.321289 
	C286.103027,273.739807 283.252350,284.762177 280.203003,295.729340 
	C277.929688,303.905518 275.596893,312.075470 272.936951,320.131409 
	C269.050812,331.901123 264.901825,343.585571 260.713257,355.251923 
	C260.170929,356.762421 258.725555,357.948700 257.698456,359.285126 
	C257.287689,359.138275 256.876923,358.991425 256.466156,358.844574 
	C256.184753,356.329834 255.938156,353.810608 255.615753,351.301086 
	C254.422714,342.014893 253.326752,332.713959 251.962555,323.452698 
	C250.528687,313.718445 248.752914,304.034882 247.286652,294.305023 
	C246.770462,290.879669 246.834732,287.370941 246.448715,283.921021 
	C245.350037,274.102325 244.221985,264.285919 242.972580,254.485535 
	C242.312210,249.305649 241.375137,244.161041 240.529602,238.788483 
	C242.226654,238.420074 243.160019,238.043304 244.094421,238.040695 
	C258.586029,238.000076 273.077820,237.990036 287.569489,238.020309 
	C290.321136,238.026062 293.477173,238.241760 292.905945,242.089813 
	C291.919769,248.733398 290.425720,255.301605 289.091888,262.321289 
z"/>
<path fill="#B0A04E" opacity="1.000000" stroke="none" 
	d="
M351.008972,237.767899 
	C352.229919,230.775681 353.469513,224.235123 354.681519,217.689453 
	C356.132843,209.851120 357.496979,201.996048 359.020844,194.171967 
	C360.050690,188.884491 361.212372,183.617142 362.593536,178.414719 
	C362.698853,178.018051 365.514465,177.626785 366.234100,178.230194 
	C369.459106,180.934296 372.684662,183.748230 375.360138,186.978027 
	C386.888245,200.894577 395.903656,216.420029 403.901215,232.565262 
	C405.150726,235.087677 406.349274,237.635300 407.970795,241.000000 
	C390.430450,241.000000 374.134949,241.000137 357.839478,240.999649 
	C356.673889,240.999619 355.351105,241.343353 354.381744,240.905945 
	C353.113464,240.333664 352.124542,239.142349 351.008972,237.767899 
z"/>
</svg>